<mxfile host="app.diagrams.net" modified="2023-06-06T18:08:16.288Z" agent="Mozilla/5.0 (X11; Ubuntu; Linux x86_64; rv:109.0) Gecko/20100101 Firefox/113.0" etag="kHiK3KIYZQJ3Icbob3y7" version="21.3.7" type="github">
  <diagram name="Page-1" id="Dn7WCph-Q2Zk05KkJ9gT">
    <mxGraphModel dx="714" dy="1919" grid="1" gridSize="10" guides="1" tooltips="1" connect="1" arrows="1" fold="1" page="1" pageScale="1" pageWidth="850" pageHeight="1100" math="0" shadow="0">
      <root>
        <object label="" teste="10" id="0">
          <mxCell />
        </object>
        <mxCell id="1" parent="0" />
        <mxCell id="Tr1CRuv71H9EIvpvQ8Qs-18" style="edgeStyle=orthogonalEdgeStyle;rounded=0;orthogonalLoop=1;jettySize=auto;html=1;exitX=1;exitY=0.5;exitDx=0;exitDy=0;" parent="1" source="v_8HGv_C3uq0IwqfqXQF-1" target="Tr1CRuv71H9EIvpvQ8Qs-1" edge="1">
          <mxGeometry relative="1" as="geometry" />
        </mxCell>
        <mxCell id="v_8HGv_C3uq0IwqfqXQF-1" value="Padrão" style="ellipse;whiteSpace=wrap;html=1;" parent="1" vertex="1">
          <mxGeometry x="320" y="120" width="80" height="80" as="geometry" />
        </mxCell>
        <mxCell id="Tr1CRuv71H9EIvpvQ8Qs-237" style="edgeStyle=orthogonalEdgeStyle;rounded=0;orthogonalLoop=1;jettySize=auto;html=1;exitX=0.5;exitY=0;exitDx=0;exitDy=0;entryX=1;entryY=0;entryDx=0;entryDy=0;" parent="1" source="Tr1CRuv71H9EIvpvQ8Qs-1" target="v_8HGv_C3uq0IwqfqXQF-1" edge="1">
          <mxGeometry relative="1" as="geometry">
            <Array as="points">
              <mxPoint x="560" y="100" />
              <mxPoint x="388" y="100" />
            </Array>
          </mxGeometry>
        </mxCell>
        <mxCell id="Tr1CRuv71H9EIvpvQ8Qs-1" value="&lt;div&gt;Seleção&lt;/div&gt;&lt;div&gt;Produto&lt;br&gt;&lt;/div&gt;" style="ellipse;whiteSpace=wrap;html=1;" parent="1" vertex="1">
          <mxGeometry x="520" y="120" width="80" height="80" as="geometry" />
        </mxCell>
        <mxCell id="Tr1CRuv71H9EIvpvQ8Qs-13" value="&lt;div&gt;Reestoque&lt;/div&gt;" style="whiteSpace=wrap;html=1;aspect=fixed;" parent="1" vertex="1">
          <mxGeometry x="320" y="-280" width="80" height="80" as="geometry" />
        </mxCell>
        <mxCell id="Tr1CRuv71H9EIvpvQ8Qs-14" value="&lt;div&gt;Manutenção&lt;/div&gt;" style="whiteSpace=wrap;html=1;aspect=fixed;" parent="1" vertex="1">
          <mxGeometry x="40" y="120" width="80" height="80" as="geometry" />
        </mxCell>
        <mxCell id="Tr1CRuv71H9EIvpvQ8Qs-16" value="Manutenção" style="ellipse;whiteSpace=wrap;html=1;aspect=fixed;" parent="1" vertex="1">
          <mxGeometry x="200" y="120" width="80" height="80" as="geometry" />
        </mxCell>
        <mxCell id="Tr1CRuv71H9EIvpvQ8Qs-17" value="Reestoque" style="ellipse;whiteSpace=wrap;html=1;" parent="1" vertex="1">
          <mxGeometry x="320" y="-160" width="80" height="80" as="geometry" />
        </mxCell>
        <mxCell id="Tr1CRuv71H9EIvpvQ8Qs-20" value="&amp;lt;entrada usr&amp;gt;&lt;br&gt;&lt;div&gt;&quot;saida sys&quot;&lt;/div&gt;&lt;div&gt;[ação sys]&lt;/div&gt;&lt;div&gt;(resultado sys)&lt;br&gt;&lt;/div&gt;" style="text;html=1;strokeColor=none;fillColor=none;align=center;verticalAlign=middle;whiteSpace=wrap;rounded=0;" parent="1" vertex="1">
          <mxGeometry x="300" y="220" width="120" height="80" as="geometry" />
        </mxCell>
        <mxCell id="Tr1CRuv71H9EIvpvQ8Qs-21" value="&amp;lt;Comprar&amp;gt;&lt;br&gt;&lt;div&gt;&quot;Selecione o produto&quot;&lt;/div&gt;" style="text;html=1;strokeColor=none;fillColor=none;align=center;verticalAlign=middle;whiteSpace=wrap;rounded=0;" parent="1" vertex="1">
          <mxGeometry x="400" y="120" width="120" height="40" as="geometry" />
        </mxCell>
        <mxCell id="Tr1CRuv71H9EIvpvQ8Qs-62" value="Tabela Produtos" style="shape=table;startSize=27;container=1;collapsible=1;childLayout=tableLayout;fixedRows=1;rowLines=0;fontStyle=1;align=center;resizeLast=1;html=1;" parent="1" vertex="1">
          <mxGeometry x="440" y="-640" width="200" height="677" as="geometry">
            <mxRectangle x="440" y="-597" width="70" height="30" as="alternateBounds" />
          </mxGeometry>
        </mxCell>
        <mxCell id="Tr1CRuv71H9EIvpvQ8Qs-63" value="" style="shape=tableRow;horizontal=0;startSize=0;swimlaneHead=0;swimlaneBody=0;fillColor=none;collapsible=0;dropTarget=0;points=[[0,0.5],[1,0.5]];portConstraint=eastwest;top=0;left=0;right=0;bottom=1;" parent="Tr1CRuv71H9EIvpvQ8Qs-62" vertex="1">
          <mxGeometry y="27" width="200" height="30" as="geometry" />
        </mxCell>
        <mxCell id="Tr1CRuv71H9EIvpvQ8Qs-64" value="Produto" style="shape=partialRectangle;connectable=0;fillColor=none;top=0;left=0;bottom=0;right=0;fontStyle=1;overflow=hidden;whiteSpace=wrap;html=1;" parent="Tr1CRuv71H9EIvpvQ8Qs-63" vertex="1">
          <mxGeometry width="130" height="30" as="geometry">
            <mxRectangle width="130" height="30" as="alternateBounds" />
          </mxGeometry>
        </mxCell>
        <mxCell id="Tr1CRuv71H9EIvpvQ8Qs-65" value="Preço" style="shape=partialRectangle;connectable=0;fillColor=none;top=0;left=0;bottom=0;right=0;align=left;spacingLeft=6;fontStyle=5;overflow=hidden;whiteSpace=wrap;html=1;" parent="Tr1CRuv71H9EIvpvQ8Qs-63" vertex="1">
          <mxGeometry x="130" width="70" height="30" as="geometry">
            <mxRectangle width="70" height="30" as="alternateBounds" />
          </mxGeometry>
        </mxCell>
        <mxCell id="Tr1CRuv71H9EIvpvQ8Qs-66" value="" style="shape=tableRow;horizontal=0;startSize=0;swimlaneHead=0;swimlaneBody=0;fillColor=none;collapsible=0;dropTarget=0;points=[[0,0.5],[1,0.5]];portConstraint=eastwest;top=0;left=0;right=0;bottom=0;" parent="Tr1CRuv71H9EIvpvQ8Qs-62" vertex="1">
          <mxGeometry y="57" width="200" height="30" as="geometry" />
        </mxCell>
        <mxCell id="Tr1CRuv71H9EIvpvQ8Qs-67" value="&lt;div&gt;Refri 1&lt;/div&gt;" style="shape=partialRectangle;connectable=0;fillColor=none;top=0;left=0;bottom=0;right=0;editable=1;overflow=hidden;whiteSpace=wrap;html=1;" parent="Tr1CRuv71H9EIvpvQ8Qs-66" vertex="1">
          <mxGeometry width="130" height="30" as="geometry">
            <mxRectangle width="130" height="30" as="alternateBounds" />
          </mxGeometry>
        </mxCell>
        <mxCell id="Tr1CRuv71H9EIvpvQ8Qs-68" value="2,50" style="shape=partialRectangle;connectable=0;fillColor=none;top=0;left=0;bottom=0;right=0;align=left;spacingLeft=6;overflow=hidden;whiteSpace=wrap;html=1;" parent="Tr1CRuv71H9EIvpvQ8Qs-66" vertex="1">
          <mxGeometry x="130" width="70" height="30" as="geometry">
            <mxRectangle width="70" height="30" as="alternateBounds" />
          </mxGeometry>
        </mxCell>
        <mxCell id="Tr1CRuv71H9EIvpvQ8Qs-69" value="" style="shape=tableRow;horizontal=0;startSize=0;swimlaneHead=0;swimlaneBody=0;fillColor=none;collapsible=0;dropTarget=0;points=[[0,0.5],[1,0.5]];portConstraint=eastwest;top=0;left=0;right=0;bottom=0;" parent="Tr1CRuv71H9EIvpvQ8Qs-62" vertex="1">
          <mxGeometry y="87" width="200" height="30" as="geometry" />
        </mxCell>
        <mxCell id="Tr1CRuv71H9EIvpvQ8Qs-70" value="Refri 2" style="shape=partialRectangle;connectable=0;fillColor=none;top=0;left=0;bottom=0;right=0;editable=1;overflow=hidden;whiteSpace=wrap;html=1;" parent="Tr1CRuv71H9EIvpvQ8Qs-69" vertex="1">
          <mxGeometry width="130" height="30" as="geometry">
            <mxRectangle width="130" height="30" as="alternateBounds" />
          </mxGeometry>
        </mxCell>
        <mxCell id="Tr1CRuv71H9EIvpvQ8Qs-71" value="2,50" style="shape=partialRectangle;connectable=0;fillColor=none;top=0;left=0;bottom=0;right=0;align=left;spacingLeft=6;overflow=hidden;whiteSpace=wrap;html=1;" parent="Tr1CRuv71H9EIvpvQ8Qs-69" vertex="1">
          <mxGeometry x="130" width="70" height="30" as="geometry">
            <mxRectangle width="70" height="30" as="alternateBounds" />
          </mxGeometry>
        </mxCell>
        <mxCell id="Tr1CRuv71H9EIvpvQ8Qs-72" value="" style="shape=tableRow;horizontal=0;startSize=0;swimlaneHead=0;swimlaneBody=0;fillColor=none;collapsible=0;dropTarget=0;points=[[0,0.5],[1,0.5]];portConstraint=eastwest;top=0;left=0;right=0;bottom=0;" parent="Tr1CRuv71H9EIvpvQ8Qs-62" vertex="1">
          <mxGeometry y="117" width="200" height="30" as="geometry" />
        </mxCell>
        <mxCell id="Tr1CRuv71H9EIvpvQ8Qs-73" value="Refri 3" style="shape=partialRectangle;connectable=0;fillColor=none;top=0;left=0;bottom=0;right=0;editable=1;overflow=hidden;whiteSpace=wrap;html=1;" parent="Tr1CRuv71H9EIvpvQ8Qs-72" vertex="1">
          <mxGeometry width="130" height="30" as="geometry">
            <mxRectangle width="130" height="30" as="alternateBounds" />
          </mxGeometry>
        </mxCell>
        <mxCell id="Tr1CRuv71H9EIvpvQ8Qs-74" value="&lt;div&gt;3,00&lt;/div&gt;" style="shape=partialRectangle;connectable=0;fillColor=none;top=0;left=0;bottom=0;right=0;align=left;spacingLeft=6;overflow=hidden;whiteSpace=wrap;html=1;" parent="Tr1CRuv71H9EIvpvQ8Qs-72" vertex="1">
          <mxGeometry x="130" width="70" height="30" as="geometry">
            <mxRectangle width="70" height="30" as="alternateBounds" />
          </mxGeometry>
        </mxCell>
        <mxCell id="Tr1CRuv71H9EIvpvQ8Qs-88" value="" style="shape=tableRow;horizontal=0;startSize=0;swimlaneHead=0;swimlaneBody=0;fillColor=none;collapsible=0;dropTarget=0;points=[[0,0.5],[1,0.5]];portConstraint=eastwest;top=0;left=0;right=0;bottom=0;" parent="Tr1CRuv71H9EIvpvQ8Qs-62" vertex="1">
          <mxGeometry y="147" width="200" height="30" as="geometry" />
        </mxCell>
        <mxCell id="Tr1CRuv71H9EIvpvQ8Qs-89" value="Refri 4" style="shape=partialRectangle;connectable=0;fillColor=none;top=0;left=0;bottom=0;right=0;editable=1;overflow=hidden;whiteSpace=wrap;html=1;" parent="Tr1CRuv71H9EIvpvQ8Qs-88" vertex="1">
          <mxGeometry width="130" height="30" as="geometry">
            <mxRectangle width="130" height="30" as="alternateBounds" />
          </mxGeometry>
        </mxCell>
        <mxCell id="Tr1CRuv71H9EIvpvQ8Qs-90" value="3,00&lt;span style=&quot;white-space: pre;&quot;&gt; &lt;/span&gt;" style="shape=partialRectangle;connectable=0;fillColor=none;top=0;left=0;bottom=0;right=0;align=left;spacingLeft=6;overflow=hidden;whiteSpace=wrap;html=1;" parent="Tr1CRuv71H9EIvpvQ8Qs-88" vertex="1">
          <mxGeometry x="130" width="70" height="30" as="geometry">
            <mxRectangle width="70" height="30" as="alternateBounds" />
          </mxGeometry>
        </mxCell>
        <mxCell id="Tr1CRuv71H9EIvpvQ8Qs-91" value="" style="shape=tableRow;horizontal=0;startSize=0;swimlaneHead=0;swimlaneBody=0;fillColor=none;collapsible=0;dropTarget=0;points=[[0,0.5],[1,0.5]];portConstraint=eastwest;top=0;left=0;right=0;bottom=0;" parent="Tr1CRuv71H9EIvpvQ8Qs-62" vertex="1">
          <mxGeometry y="177" width="200" height="30" as="geometry" />
        </mxCell>
        <mxCell id="Tr1CRuv71H9EIvpvQ8Qs-92" value="Refri 5" style="shape=partialRectangle;connectable=0;fillColor=none;top=0;left=0;bottom=0;right=0;editable=1;overflow=hidden;whiteSpace=wrap;html=1;" parent="Tr1CRuv71H9EIvpvQ8Qs-91" vertex="1">
          <mxGeometry width="130" height="30" as="geometry">
            <mxRectangle width="130" height="30" as="alternateBounds" />
          </mxGeometry>
        </mxCell>
        <mxCell id="Tr1CRuv71H9EIvpvQ8Qs-93" value="4,00&lt;span style=&quot;white-space: pre;&quot;&gt; &lt;/span&gt;" style="shape=partialRectangle;connectable=0;fillColor=none;top=0;left=0;bottom=0;right=0;align=left;spacingLeft=6;overflow=hidden;whiteSpace=wrap;html=1;" parent="Tr1CRuv71H9EIvpvQ8Qs-91" vertex="1">
          <mxGeometry x="130" width="70" height="30" as="geometry">
            <mxRectangle width="70" height="30" as="alternateBounds" />
          </mxGeometry>
        </mxCell>
        <mxCell id="Tr1CRuv71H9EIvpvQ8Qs-94" value="" style="shape=tableRow;horizontal=0;startSize=0;swimlaneHead=0;swimlaneBody=0;fillColor=none;collapsible=0;dropTarget=0;points=[[0,0.5],[1,0.5]];portConstraint=eastwest;top=0;left=0;right=0;bottom=0;" parent="Tr1CRuv71H9EIvpvQ8Qs-62" vertex="1">
          <mxGeometry y="207" width="200" height="30" as="geometry" />
        </mxCell>
        <mxCell id="Tr1CRuv71H9EIvpvQ8Qs-95" value="Suco 1" style="shape=partialRectangle;connectable=0;fillColor=none;top=0;left=0;bottom=0;right=0;editable=1;overflow=hidden;whiteSpace=wrap;html=1;" parent="Tr1CRuv71H9EIvpvQ8Qs-94" vertex="1">
          <mxGeometry width="130" height="30" as="geometry">
            <mxRectangle width="130" height="30" as="alternateBounds" />
          </mxGeometry>
        </mxCell>
        <mxCell id="Tr1CRuv71H9EIvpvQ8Qs-96" value="5,00&lt;span style=&quot;white-space: pre;&quot;&gt; &lt;/span&gt;&lt;span style=&quot;white-space: pre;&quot;&gt; &lt;/span&gt;" style="shape=partialRectangle;connectable=0;fillColor=none;top=0;left=0;bottom=0;right=0;align=left;spacingLeft=6;overflow=hidden;whiteSpace=wrap;html=1;" parent="Tr1CRuv71H9EIvpvQ8Qs-94" vertex="1">
          <mxGeometry x="130" width="70" height="30" as="geometry">
            <mxRectangle width="70" height="30" as="alternateBounds" />
          </mxGeometry>
        </mxCell>
        <mxCell id="Tr1CRuv71H9EIvpvQ8Qs-97" value="" style="shape=tableRow;horizontal=0;startSize=0;swimlaneHead=0;swimlaneBody=0;fillColor=none;collapsible=0;dropTarget=0;points=[[0,0.5],[1,0.5]];portConstraint=eastwest;top=0;left=0;right=0;bottom=0;" parent="Tr1CRuv71H9EIvpvQ8Qs-62" vertex="1">
          <mxGeometry y="237" width="200" height="30" as="geometry" />
        </mxCell>
        <mxCell id="Tr1CRuv71H9EIvpvQ8Qs-98" value="Suco 2" style="shape=partialRectangle;connectable=0;fillColor=none;top=0;left=0;bottom=0;right=0;editable=1;overflow=hidden;whiteSpace=wrap;html=1;" parent="Tr1CRuv71H9EIvpvQ8Qs-97" vertex="1">
          <mxGeometry width="130" height="30" as="geometry">
            <mxRectangle width="130" height="30" as="alternateBounds" />
          </mxGeometry>
        </mxCell>
        <mxCell id="Tr1CRuv71H9EIvpvQ8Qs-99" value="5,50&lt;span style=&quot;white-space: pre;&quot;&gt; &lt;/span&gt;&lt;span style=&quot;white-space: pre;&quot;&gt; &lt;/span&gt;&lt;span style=&quot;white-space: pre;&quot;&gt; &lt;/span&gt;" style="shape=partialRectangle;connectable=0;fillColor=none;top=0;left=0;bottom=0;right=0;align=left;spacingLeft=6;overflow=hidden;whiteSpace=wrap;html=1;" parent="Tr1CRuv71H9EIvpvQ8Qs-97" vertex="1">
          <mxGeometry x="130" width="70" height="30" as="geometry">
            <mxRectangle width="70" height="30" as="alternateBounds" />
          </mxGeometry>
        </mxCell>
        <mxCell id="Tr1CRuv71H9EIvpvQ8Qs-100" value="" style="shape=tableRow;horizontal=0;startSize=0;swimlaneHead=0;swimlaneBody=0;fillColor=none;collapsible=0;dropTarget=0;points=[[0,0.5],[1,0.5]];portConstraint=eastwest;top=0;left=0;right=0;bottom=0;" parent="Tr1CRuv71H9EIvpvQ8Qs-62" vertex="1">
          <mxGeometry y="267" width="200" height="30" as="geometry" />
        </mxCell>
        <mxCell id="Tr1CRuv71H9EIvpvQ8Qs-101" value="Suco 3" style="shape=partialRectangle;connectable=0;fillColor=none;top=0;left=0;bottom=0;right=0;editable=1;overflow=hidden;whiteSpace=wrap;html=1;" parent="Tr1CRuv71H9EIvpvQ8Qs-100" vertex="1">
          <mxGeometry width="130" height="30" as="geometry">
            <mxRectangle width="130" height="30" as="alternateBounds" />
          </mxGeometry>
        </mxCell>
        <mxCell id="Tr1CRuv71H9EIvpvQ8Qs-102" value="5,50&lt;span style=&quot;white-space: pre;&quot;&gt; &lt;/span&gt;" style="shape=partialRectangle;connectable=0;fillColor=none;top=0;left=0;bottom=0;right=0;align=left;spacingLeft=6;overflow=hidden;whiteSpace=wrap;html=1;" parent="Tr1CRuv71H9EIvpvQ8Qs-100" vertex="1">
          <mxGeometry x="130" width="70" height="30" as="geometry">
            <mxRectangle width="70" height="30" as="alternateBounds" />
          </mxGeometry>
        </mxCell>
        <mxCell id="Tr1CRuv71H9EIvpvQ8Qs-103" value="" style="shape=tableRow;horizontal=0;startSize=0;swimlaneHead=0;swimlaneBody=0;fillColor=none;collapsible=0;dropTarget=0;points=[[0,0.5],[1,0.5]];portConstraint=eastwest;top=0;left=0;right=0;bottom=0;" parent="Tr1CRuv71H9EIvpvQ8Qs-62" vertex="1">
          <mxGeometry y="297" width="200" height="30" as="geometry" />
        </mxCell>
        <mxCell id="Tr1CRuv71H9EIvpvQ8Qs-104" value="Suco 4" style="shape=partialRectangle;connectable=0;fillColor=none;top=0;left=0;bottom=0;right=0;editable=1;overflow=hidden;whiteSpace=wrap;html=1;" parent="Tr1CRuv71H9EIvpvQ8Qs-103" vertex="1">
          <mxGeometry width="130" height="30" as="geometry">
            <mxRectangle width="130" height="30" as="alternateBounds" />
          </mxGeometry>
        </mxCell>
        <mxCell id="Tr1CRuv71H9EIvpvQ8Qs-105" value="6,00" style="shape=partialRectangle;connectable=0;fillColor=none;top=0;left=0;bottom=0;right=0;align=left;spacingLeft=6;overflow=hidden;whiteSpace=wrap;html=1;" parent="Tr1CRuv71H9EIvpvQ8Qs-103" vertex="1">
          <mxGeometry x="130" width="70" height="30" as="geometry">
            <mxRectangle width="70" height="30" as="alternateBounds" />
          </mxGeometry>
        </mxCell>
        <mxCell id="Tr1CRuv71H9EIvpvQ8Qs-106" value="" style="shape=tableRow;horizontal=0;startSize=0;swimlaneHead=0;swimlaneBody=0;fillColor=none;collapsible=0;dropTarget=0;points=[[0,0.5],[1,0.5]];portConstraint=eastwest;top=0;left=0;right=0;bottom=0;" parent="Tr1CRuv71H9EIvpvQ8Qs-62" vertex="1">
          <mxGeometry y="327" width="200" height="30" as="geometry" />
        </mxCell>
        <mxCell id="Tr1CRuv71H9EIvpvQ8Qs-107" value="Suco 5" style="shape=partialRectangle;connectable=0;fillColor=none;top=0;left=0;bottom=0;right=0;editable=1;overflow=hidden;whiteSpace=wrap;html=1;" parent="Tr1CRuv71H9EIvpvQ8Qs-106" vertex="1">
          <mxGeometry width="130" height="30" as="geometry">
            <mxRectangle width="130" height="30" as="alternateBounds" />
          </mxGeometry>
        </mxCell>
        <mxCell id="Tr1CRuv71H9EIvpvQ8Qs-108" value="6,00" style="shape=partialRectangle;connectable=0;fillColor=none;top=0;left=0;bottom=0;right=0;align=left;spacingLeft=6;overflow=hidden;whiteSpace=wrap;html=1;" parent="Tr1CRuv71H9EIvpvQ8Qs-106" vertex="1">
          <mxGeometry x="130" width="70" height="30" as="geometry">
            <mxRectangle width="70" height="30" as="alternateBounds" />
          </mxGeometry>
        </mxCell>
        <mxCell id="Tr1CRuv71H9EIvpvQ8Qs-109" value="" style="shape=tableRow;horizontal=0;startSize=0;swimlaneHead=0;swimlaneBody=0;fillColor=none;collapsible=0;dropTarget=0;points=[[0,0.5],[1,0.5]];portConstraint=eastwest;top=0;left=0;right=0;bottom=0;" parent="Tr1CRuv71H9EIvpvQ8Qs-62" vertex="1">
          <mxGeometry y="357" width="200" height="30" as="geometry" />
        </mxCell>
        <mxCell id="Tr1CRuv71H9EIvpvQ8Qs-110" value="Salgado 1" style="shape=partialRectangle;connectable=0;fillColor=none;top=0;left=0;bottom=0;right=0;editable=1;overflow=hidden;whiteSpace=wrap;html=1;" parent="Tr1CRuv71H9EIvpvQ8Qs-109" vertex="1">
          <mxGeometry width="130" height="30" as="geometry">
            <mxRectangle width="130" height="30" as="alternateBounds" />
          </mxGeometry>
        </mxCell>
        <mxCell id="Tr1CRuv71H9EIvpvQ8Qs-111" value="&lt;div&gt;5,00&lt;/div&gt;" style="shape=partialRectangle;connectable=0;fillColor=none;top=0;left=0;bottom=0;right=0;align=left;spacingLeft=6;overflow=hidden;whiteSpace=wrap;html=1;" parent="Tr1CRuv71H9EIvpvQ8Qs-109" vertex="1">
          <mxGeometry x="130" width="70" height="30" as="geometry">
            <mxRectangle width="70" height="30" as="alternateBounds" />
          </mxGeometry>
        </mxCell>
        <mxCell id="Tr1CRuv71H9EIvpvQ8Qs-112" value="" style="shape=tableRow;horizontal=0;startSize=0;swimlaneHead=0;swimlaneBody=0;fillColor=none;collapsible=0;dropTarget=0;points=[[0,0.5],[1,0.5]];portConstraint=eastwest;top=0;left=0;right=0;bottom=0;" parent="Tr1CRuv71H9EIvpvQ8Qs-62" vertex="1">
          <mxGeometry y="387" width="200" height="30" as="geometry" />
        </mxCell>
        <mxCell id="Tr1CRuv71H9EIvpvQ8Qs-113" value="Salgado 2" style="shape=partialRectangle;connectable=0;fillColor=none;top=0;left=0;bottom=0;right=0;editable=1;overflow=hidden;whiteSpace=wrap;html=1;" parent="Tr1CRuv71H9EIvpvQ8Qs-112" vertex="1">
          <mxGeometry width="130" height="30" as="geometry">
            <mxRectangle width="130" height="30" as="alternateBounds" />
          </mxGeometry>
        </mxCell>
        <mxCell id="Tr1CRuv71H9EIvpvQ8Qs-114" value="5,00" style="shape=partialRectangle;connectable=0;fillColor=none;top=0;left=0;bottom=0;right=0;align=left;spacingLeft=6;overflow=hidden;whiteSpace=wrap;html=1;" parent="Tr1CRuv71H9EIvpvQ8Qs-112" vertex="1">
          <mxGeometry x="130" width="70" height="30" as="geometry">
            <mxRectangle width="70" height="30" as="alternateBounds" />
          </mxGeometry>
        </mxCell>
        <mxCell id="Tr1CRuv71H9EIvpvQ8Qs-115" value="" style="shape=tableRow;horizontal=0;startSize=0;swimlaneHead=0;swimlaneBody=0;fillColor=none;collapsible=0;dropTarget=0;points=[[0,0.5],[1,0.5]];portConstraint=eastwest;top=0;left=0;right=0;bottom=0;" parent="Tr1CRuv71H9EIvpvQ8Qs-62" vertex="1">
          <mxGeometry y="417" width="200" height="30" as="geometry" />
        </mxCell>
        <mxCell id="Tr1CRuv71H9EIvpvQ8Qs-116" value="Salgado 3" style="shape=partialRectangle;connectable=0;fillColor=none;top=0;left=0;bottom=0;right=0;editable=1;overflow=hidden;whiteSpace=wrap;html=1;" parent="Tr1CRuv71H9EIvpvQ8Qs-115" vertex="1">
          <mxGeometry width="130" height="30" as="geometry">
            <mxRectangle width="130" height="30" as="alternateBounds" />
          </mxGeometry>
        </mxCell>
        <mxCell id="Tr1CRuv71H9EIvpvQ8Qs-117" value="5,00" style="shape=partialRectangle;connectable=0;fillColor=none;top=0;left=0;bottom=0;right=0;align=left;spacingLeft=6;overflow=hidden;whiteSpace=wrap;html=1;" parent="Tr1CRuv71H9EIvpvQ8Qs-115" vertex="1">
          <mxGeometry x="130" width="70" height="30" as="geometry">
            <mxRectangle width="70" height="30" as="alternateBounds" />
          </mxGeometry>
        </mxCell>
        <mxCell id="Tr1CRuv71H9EIvpvQ8Qs-118" value="" style="shape=tableRow;horizontal=0;startSize=0;swimlaneHead=0;swimlaneBody=0;fillColor=none;collapsible=0;dropTarget=0;points=[[0,0.5],[1,0.5]];portConstraint=eastwest;top=0;left=0;right=0;bottom=0;" parent="Tr1CRuv71H9EIvpvQ8Qs-62" vertex="1">
          <mxGeometry y="447" width="200" height="30" as="geometry" />
        </mxCell>
        <mxCell id="Tr1CRuv71H9EIvpvQ8Qs-119" value="Salgado 4" style="shape=partialRectangle;connectable=0;fillColor=none;top=0;left=0;bottom=0;right=0;editable=1;overflow=hidden;whiteSpace=wrap;html=1;" parent="Tr1CRuv71H9EIvpvQ8Qs-118" vertex="1">
          <mxGeometry width="130" height="30" as="geometry">
            <mxRectangle width="130" height="30" as="alternateBounds" />
          </mxGeometry>
        </mxCell>
        <mxCell id="Tr1CRuv71H9EIvpvQ8Qs-120" value="6,00" style="shape=partialRectangle;connectable=0;fillColor=none;top=0;left=0;bottom=0;right=0;align=left;spacingLeft=6;overflow=hidden;whiteSpace=wrap;html=1;" parent="Tr1CRuv71H9EIvpvQ8Qs-118" vertex="1">
          <mxGeometry x="130" width="70" height="30" as="geometry">
            <mxRectangle width="70" height="30" as="alternateBounds" />
          </mxGeometry>
        </mxCell>
        <mxCell id="Tr1CRuv71H9EIvpvQ8Qs-121" value="" style="shape=tableRow;horizontal=0;startSize=0;swimlaneHead=0;swimlaneBody=0;fillColor=none;collapsible=0;dropTarget=0;points=[[0,0.5],[1,0.5]];portConstraint=eastwest;top=0;left=0;right=0;bottom=0;" parent="Tr1CRuv71H9EIvpvQ8Qs-62" vertex="1">
          <mxGeometry y="477" width="200" height="30" as="geometry" />
        </mxCell>
        <mxCell id="Tr1CRuv71H9EIvpvQ8Qs-122" value="Salgado 5" style="shape=partialRectangle;connectable=0;fillColor=none;top=0;left=0;bottom=0;right=0;editable=1;overflow=hidden;whiteSpace=wrap;html=1;" parent="Tr1CRuv71H9EIvpvQ8Qs-121" vertex="1">
          <mxGeometry width="130" height="30" as="geometry">
            <mxRectangle width="130" height="30" as="alternateBounds" />
          </mxGeometry>
        </mxCell>
        <mxCell id="Tr1CRuv71H9EIvpvQ8Qs-123" value="6,00" style="shape=partialRectangle;connectable=0;fillColor=none;top=0;left=0;bottom=0;right=0;align=left;spacingLeft=6;overflow=hidden;whiteSpace=wrap;html=1;" parent="Tr1CRuv71H9EIvpvQ8Qs-121" vertex="1">
          <mxGeometry x="130" width="70" height="30" as="geometry">
            <mxRectangle width="70" height="30" as="alternateBounds" />
          </mxGeometry>
        </mxCell>
        <mxCell id="Tr1CRuv71H9EIvpvQ8Qs-124" value="" style="shape=tableRow;horizontal=0;startSize=0;swimlaneHead=0;swimlaneBody=0;fillColor=none;collapsible=0;dropTarget=0;points=[[0,0.5],[1,0.5]];portConstraint=eastwest;top=0;left=0;right=0;bottom=0;" parent="Tr1CRuv71H9EIvpvQ8Qs-62" vertex="1">
          <mxGeometry y="507" width="200" height="30" as="geometry" />
        </mxCell>
        <mxCell id="Tr1CRuv71H9EIvpvQ8Qs-125" value="Chocolate 1" style="shape=partialRectangle;connectable=0;fillColor=none;top=0;left=0;bottom=0;right=0;editable=1;overflow=hidden;whiteSpace=wrap;html=1;" parent="Tr1CRuv71H9EIvpvQ8Qs-124" vertex="1">
          <mxGeometry width="130" height="30" as="geometry">
            <mxRectangle width="130" height="30" as="alternateBounds" />
          </mxGeometry>
        </mxCell>
        <mxCell id="Tr1CRuv71H9EIvpvQ8Qs-126" value="7,50&lt;span style=&quot;white-space: pre;&quot;&gt; &lt;/span&gt;" style="shape=partialRectangle;connectable=0;fillColor=none;top=0;left=0;bottom=0;right=0;align=left;spacingLeft=6;overflow=hidden;whiteSpace=wrap;html=1;" parent="Tr1CRuv71H9EIvpvQ8Qs-124" vertex="1">
          <mxGeometry x="130" width="70" height="30" as="geometry">
            <mxRectangle width="70" height="30" as="alternateBounds" />
          </mxGeometry>
        </mxCell>
        <mxCell id="Tr1CRuv71H9EIvpvQ8Qs-127" value="" style="shape=tableRow;horizontal=0;startSize=0;swimlaneHead=0;swimlaneBody=0;fillColor=none;collapsible=0;dropTarget=0;points=[[0,0.5],[1,0.5]];portConstraint=eastwest;top=0;left=0;right=0;bottom=0;" parent="Tr1CRuv71H9EIvpvQ8Qs-62" vertex="1">
          <mxGeometry y="537" width="200" height="30" as="geometry" />
        </mxCell>
        <mxCell id="Tr1CRuv71H9EIvpvQ8Qs-128" value="Chocolate 2" style="shape=partialRectangle;connectable=0;fillColor=none;top=0;left=0;bottom=0;right=0;editable=1;overflow=hidden;whiteSpace=wrap;html=1;" parent="Tr1CRuv71H9EIvpvQ8Qs-127" vertex="1">
          <mxGeometry width="130" height="30" as="geometry">
            <mxRectangle width="130" height="30" as="alternateBounds" />
          </mxGeometry>
        </mxCell>
        <mxCell id="Tr1CRuv71H9EIvpvQ8Qs-129" value="7,50" style="shape=partialRectangle;connectable=0;fillColor=none;top=0;left=0;bottom=0;right=0;align=left;spacingLeft=6;overflow=hidden;whiteSpace=wrap;html=1;" parent="Tr1CRuv71H9EIvpvQ8Qs-127" vertex="1">
          <mxGeometry x="130" width="70" height="30" as="geometry">
            <mxRectangle width="70" height="30" as="alternateBounds" />
          </mxGeometry>
        </mxCell>
        <mxCell id="Tr1CRuv71H9EIvpvQ8Qs-130" value="" style="shape=tableRow;horizontal=0;startSize=0;swimlaneHead=0;swimlaneBody=0;fillColor=none;collapsible=0;dropTarget=0;points=[[0,0.5],[1,0.5]];portConstraint=eastwest;top=0;left=0;right=0;bottom=0;" parent="Tr1CRuv71H9EIvpvQ8Qs-62" vertex="1">
          <mxGeometry y="567" width="200" height="30" as="geometry" />
        </mxCell>
        <mxCell id="Tr1CRuv71H9EIvpvQ8Qs-131" value="Chocolate 3" style="shape=partialRectangle;connectable=0;fillColor=none;top=0;left=0;bottom=0;right=0;editable=1;overflow=hidden;whiteSpace=wrap;html=1;" parent="Tr1CRuv71H9EIvpvQ8Qs-130" vertex="1">
          <mxGeometry width="130" height="30" as="geometry">
            <mxRectangle width="130" height="30" as="alternateBounds" />
          </mxGeometry>
        </mxCell>
        <mxCell id="Tr1CRuv71H9EIvpvQ8Qs-132" value="9,00&lt;span style=&quot;white-space: pre;&quot;&gt; &lt;/span&gt;" style="shape=partialRectangle;connectable=0;fillColor=none;top=0;left=0;bottom=0;right=0;align=left;spacingLeft=6;overflow=hidden;whiteSpace=wrap;html=1;" parent="Tr1CRuv71H9EIvpvQ8Qs-130" vertex="1">
          <mxGeometry x="130" width="70" height="30" as="geometry">
            <mxRectangle width="70" height="30" as="alternateBounds" />
          </mxGeometry>
        </mxCell>
        <mxCell id="Tr1CRuv71H9EIvpvQ8Qs-133" value="" style="shape=tableRow;horizontal=0;startSize=0;swimlaneHead=0;swimlaneBody=0;fillColor=none;collapsible=0;dropTarget=0;points=[[0,0.5],[1,0.5]];portConstraint=eastwest;top=0;left=0;right=0;bottom=0;" parent="Tr1CRuv71H9EIvpvQ8Qs-62" vertex="1">
          <mxGeometry y="597" width="200" height="30" as="geometry" />
        </mxCell>
        <mxCell id="Tr1CRuv71H9EIvpvQ8Qs-134" value="Chocolate 4" style="shape=partialRectangle;connectable=0;fillColor=none;top=0;left=0;bottom=0;right=0;editable=1;overflow=hidden;whiteSpace=wrap;html=1;" parent="Tr1CRuv71H9EIvpvQ8Qs-133" vertex="1">
          <mxGeometry width="130" height="30" as="geometry">
            <mxRectangle width="130" height="30" as="alternateBounds" />
          </mxGeometry>
        </mxCell>
        <mxCell id="Tr1CRuv71H9EIvpvQ8Qs-135" value="10,00" style="shape=partialRectangle;connectable=0;fillColor=none;top=0;left=0;bottom=0;right=0;align=left;spacingLeft=6;overflow=hidden;whiteSpace=wrap;html=1;" parent="Tr1CRuv71H9EIvpvQ8Qs-133" vertex="1">
          <mxGeometry x="130" width="70" height="30" as="geometry">
            <mxRectangle width="70" height="30" as="alternateBounds" />
          </mxGeometry>
        </mxCell>
        <mxCell id="Tr1CRuv71H9EIvpvQ8Qs-136" value="" style="shape=tableRow;horizontal=0;startSize=0;swimlaneHead=0;swimlaneBody=0;fillColor=none;collapsible=0;dropTarget=0;points=[[0,0.5],[1,0.5]];portConstraint=eastwest;top=0;left=0;right=0;bottom=0;" parent="Tr1CRuv71H9EIvpvQ8Qs-62" vertex="1">
          <mxGeometry y="627" width="200" height="30" as="geometry" />
        </mxCell>
        <mxCell id="Tr1CRuv71H9EIvpvQ8Qs-137" value="Chocolate 5" style="shape=partialRectangle;connectable=0;fillColor=none;top=0;left=0;bottom=0;right=0;editable=1;overflow=hidden;whiteSpace=wrap;html=1;" parent="Tr1CRuv71H9EIvpvQ8Qs-136" vertex="1">
          <mxGeometry width="130" height="30" as="geometry">
            <mxRectangle width="130" height="30" as="alternateBounds" />
          </mxGeometry>
        </mxCell>
        <mxCell id="Tr1CRuv71H9EIvpvQ8Qs-138" value="12,50" style="shape=partialRectangle;connectable=0;fillColor=none;top=0;left=0;bottom=0;right=0;align=left;spacingLeft=6;overflow=hidden;whiteSpace=wrap;html=1;" parent="Tr1CRuv71H9EIvpvQ8Qs-136" vertex="1">
          <mxGeometry x="130" width="70" height="30" as="geometry">
            <mxRectangle width="70" height="30" as="alternateBounds" />
          </mxGeometry>
        </mxCell>
        <mxCell id="Tr1CRuv71H9EIvpvQ8Qs-239" value="&amp;lt;Cancelar&amp;gt;&lt;br&gt;&lt;div&gt;&quot;Operaçao cancelada&quot;&lt;br&gt;&lt;/div&gt;" style="text;html=1;strokeColor=none;fillColor=none;align=center;verticalAlign=middle;whiteSpace=wrap;rounded=0;" parent="1" vertex="1">
          <mxGeometry x="387.5" y="60" width="172.5" height="40" as="geometry" />
        </mxCell>
        <mxCell id="Tr1CRuv71H9EIvpvQ8Qs-304" value="" style="group" parent="1" vertex="1" connectable="0">
          <mxGeometry x="1400" y="-520" width="960" height="320" as="geometry" />
        </mxCell>
        <mxCell id="Tr1CRuv71H9EIvpvQ8Qs-162" value="" style="whiteSpace=wrap;html=1;movable=1;resizable=1;rotatable=1;deletable=1;editable=1;locked=0;connectable=1;" parent="Tr1CRuv71H9EIvpvQ8Qs-304" vertex="1">
          <mxGeometry width="960" height="320" as="geometry" />
        </mxCell>
        <mxCell id="Tr1CRuv71H9EIvpvQ8Qs-163" value="&lt;div&gt;0&lt;/div&gt;" style="ellipse;whiteSpace=wrap;html=1;movable=1;resizable=1;rotatable=1;deletable=1;editable=1;locked=0;connectable=1;" parent="Tr1CRuv71H9EIvpvQ8Qs-304" vertex="1">
          <mxGeometry x="40" y="120" width="80" height="80" as="geometry" />
        </mxCell>
        <mxCell id="Tr1CRuv71H9EIvpvQ8Qs-184" style="edgeStyle=orthogonalEdgeStyle;rounded=0;orthogonalLoop=1;jettySize=auto;html=1;exitX=0;exitY=1;exitDx=0;exitDy=0;entryX=1;entryY=1;entryDx=0;entryDy=0;movable=1;resizable=1;rotatable=1;deletable=1;editable=1;locked=0;connectable=1;" parent="Tr1CRuv71H9EIvpvQ8Qs-304" source="Tr1CRuv71H9EIvpvQ8Qs-164" target="Tr1CRuv71H9EIvpvQ8Qs-163" edge="1">
          <mxGeometry relative="1" as="geometry" />
        </mxCell>
        <mxCell id="Tr1CRuv71H9EIvpvQ8Qs-310" style="edgeStyle=orthogonalEdgeStyle;rounded=0;orthogonalLoop=1;jettySize=auto;html=1;exitX=0.5;exitY=0;exitDx=0;exitDy=0;entryX=0.5;entryY=0;entryDx=0;entryDy=0;" parent="Tr1CRuv71H9EIvpvQ8Qs-304" source="Tr1CRuv71H9EIvpvQ8Qs-164" target="Tr1CRuv71H9EIvpvQ8Qs-168" edge="1">
          <mxGeometry relative="1" as="geometry">
            <Array as="points">
              <mxPoint x="240" y="80" />
              <mxPoint x="880" y="80" />
            </Array>
          </mxGeometry>
        </mxCell>
        <mxCell id="Tr1CRuv71H9EIvpvQ8Qs-164" value="1" style="ellipse;whiteSpace=wrap;html=1;movable=1;resizable=1;rotatable=1;deletable=1;editable=1;locked=0;connectable=1;" parent="Tr1CRuv71H9EIvpvQ8Qs-304" vertex="1">
          <mxGeometry x="200" y="120" width="80" height="80" as="geometry" />
        </mxCell>
        <mxCell id="Tr1CRuv71H9EIvpvQ8Qs-209" style="edgeStyle=orthogonalEdgeStyle;rounded=0;orthogonalLoop=1;jettySize=auto;html=1;exitX=1;exitY=0;exitDx=0;exitDy=0;entryX=0;entryY=0;entryDx=0;entryDy=0;movable=1;resizable=1;rotatable=1;deletable=1;editable=1;locked=0;connectable=1;" parent="Tr1CRuv71H9EIvpvQ8Qs-304" source="Tr1CRuv71H9EIvpvQ8Qs-163" target="Tr1CRuv71H9EIvpvQ8Qs-164" edge="1">
          <mxGeometry relative="1" as="geometry" />
        </mxCell>
        <mxCell id="Tr1CRuv71H9EIvpvQ8Qs-183" style="edgeStyle=orthogonalEdgeStyle;rounded=0;orthogonalLoop=1;jettySize=auto;html=1;exitX=0;exitY=1;exitDx=0;exitDy=0;entryX=1;entryY=1;entryDx=0;entryDy=0;movable=1;resizable=1;rotatable=1;deletable=1;editable=1;locked=0;connectable=1;" parent="Tr1CRuv71H9EIvpvQ8Qs-304" source="Tr1CRuv71H9EIvpvQ8Qs-165" target="Tr1CRuv71H9EIvpvQ8Qs-164" edge="1">
          <mxGeometry relative="1" as="geometry" />
        </mxCell>
        <mxCell id="Tr1CRuv71H9EIvpvQ8Qs-311" style="edgeStyle=orthogonalEdgeStyle;rounded=0;orthogonalLoop=1;jettySize=auto;html=1;exitX=0.5;exitY=0;exitDx=0;exitDy=0;" parent="Tr1CRuv71H9EIvpvQ8Qs-304" source="Tr1CRuv71H9EIvpvQ8Qs-165" edge="1">
          <mxGeometry relative="1" as="geometry">
            <mxPoint x="880" y="119.83333333333348" as="targetPoint" />
            <Array as="points">
              <mxPoint x="400" y="80" />
              <mxPoint x="880" y="80" />
            </Array>
          </mxGeometry>
        </mxCell>
        <mxCell id="Tr1CRuv71H9EIvpvQ8Qs-165" value="2" style="ellipse;whiteSpace=wrap;html=1;movable=1;resizable=1;rotatable=1;deletable=1;editable=1;locked=0;connectable=1;" parent="Tr1CRuv71H9EIvpvQ8Qs-304" vertex="1">
          <mxGeometry x="360" y="120" width="80" height="80" as="geometry" />
        </mxCell>
        <mxCell id="Tr1CRuv71H9EIvpvQ8Qs-176" style="edgeStyle=orthogonalEdgeStyle;rounded=0;orthogonalLoop=1;jettySize=auto;html=1;exitX=1;exitY=0;exitDx=0;exitDy=0;entryX=0;entryY=0;entryDx=0;entryDy=0;movable=1;resizable=1;rotatable=1;deletable=1;editable=1;locked=0;connectable=1;" parent="Tr1CRuv71H9EIvpvQ8Qs-304" source="Tr1CRuv71H9EIvpvQ8Qs-164" target="Tr1CRuv71H9EIvpvQ8Qs-165" edge="1">
          <mxGeometry relative="1" as="geometry" />
        </mxCell>
        <mxCell id="Tr1CRuv71H9EIvpvQ8Qs-182" style="edgeStyle=orthogonalEdgeStyle;rounded=0;orthogonalLoop=1;jettySize=auto;html=1;exitX=0;exitY=1;exitDx=0;exitDy=0;entryX=1;entryY=1;entryDx=0;entryDy=0;movable=1;resizable=1;rotatable=1;deletable=1;editable=1;locked=0;connectable=1;" parent="Tr1CRuv71H9EIvpvQ8Qs-304" source="Tr1CRuv71H9EIvpvQ8Qs-166" target="Tr1CRuv71H9EIvpvQ8Qs-165" edge="1">
          <mxGeometry relative="1" as="geometry" />
        </mxCell>
        <mxCell id="Tr1CRuv71H9EIvpvQ8Qs-312" style="edgeStyle=orthogonalEdgeStyle;rounded=0;orthogonalLoop=1;jettySize=auto;html=1;exitX=0.5;exitY=0;exitDx=0;exitDy=0;entryX=0.5;entryY=0;entryDx=0;entryDy=0;" parent="Tr1CRuv71H9EIvpvQ8Qs-304" source="Tr1CRuv71H9EIvpvQ8Qs-166" target="Tr1CRuv71H9EIvpvQ8Qs-168" edge="1">
          <mxGeometry relative="1" as="geometry">
            <Array as="points">
              <mxPoint x="560" y="80" />
              <mxPoint x="880" y="80" />
            </Array>
          </mxGeometry>
        </mxCell>
        <mxCell id="Tr1CRuv71H9EIvpvQ8Qs-166" value="3" style="ellipse;whiteSpace=wrap;html=1;movable=1;resizable=1;rotatable=1;deletable=1;editable=1;locked=0;connectable=1;" parent="Tr1CRuv71H9EIvpvQ8Qs-304" vertex="1">
          <mxGeometry x="520" y="120" width="80" height="80" as="geometry" />
        </mxCell>
        <mxCell id="Tr1CRuv71H9EIvpvQ8Qs-177" style="edgeStyle=orthogonalEdgeStyle;rounded=0;orthogonalLoop=1;jettySize=auto;html=1;exitX=1;exitY=0;exitDx=0;exitDy=0;entryX=0;entryY=0;entryDx=0;entryDy=0;movable=1;resizable=1;rotatable=1;deletable=1;editable=1;locked=0;connectable=1;" parent="Tr1CRuv71H9EIvpvQ8Qs-304" source="Tr1CRuv71H9EIvpvQ8Qs-165" target="Tr1CRuv71H9EIvpvQ8Qs-166" edge="1">
          <mxGeometry relative="1" as="geometry" />
        </mxCell>
        <mxCell id="Tr1CRuv71H9EIvpvQ8Qs-181" style="edgeStyle=orthogonalEdgeStyle;rounded=0;orthogonalLoop=1;jettySize=auto;html=1;exitX=0;exitY=1;exitDx=0;exitDy=0;entryX=1;entryY=1;entryDx=0;entryDy=0;movable=1;resizable=1;rotatable=1;deletable=1;editable=1;locked=0;connectable=1;" parent="Tr1CRuv71H9EIvpvQ8Qs-304" source="Tr1CRuv71H9EIvpvQ8Qs-167" target="Tr1CRuv71H9EIvpvQ8Qs-166" edge="1">
          <mxGeometry relative="1" as="geometry" />
        </mxCell>
        <mxCell id="Tr1CRuv71H9EIvpvQ8Qs-314" style="edgeStyle=orthogonalEdgeStyle;rounded=0;orthogonalLoop=1;jettySize=auto;html=1;exitX=0.5;exitY=0;exitDx=0;exitDy=0;entryX=0.5;entryY=0;entryDx=0;entryDy=0;" parent="Tr1CRuv71H9EIvpvQ8Qs-304" source="Tr1CRuv71H9EIvpvQ8Qs-167" target="Tr1CRuv71H9EIvpvQ8Qs-168" edge="1">
          <mxGeometry relative="1" as="geometry">
            <Array as="points">
              <mxPoint x="720" y="80" />
              <mxPoint x="880" y="80" />
            </Array>
          </mxGeometry>
        </mxCell>
        <mxCell id="Tr1CRuv71H9EIvpvQ8Qs-167" value="4" style="ellipse;whiteSpace=wrap;html=1;movable=1;resizable=1;rotatable=1;deletable=1;editable=1;locked=0;connectable=1;" parent="Tr1CRuv71H9EIvpvQ8Qs-304" vertex="1">
          <mxGeometry x="680" y="120" width="80" height="80" as="geometry" />
        </mxCell>
        <mxCell id="Tr1CRuv71H9EIvpvQ8Qs-178" style="edgeStyle=orthogonalEdgeStyle;rounded=0;orthogonalLoop=1;jettySize=auto;html=1;exitX=1;exitY=0;exitDx=0;exitDy=0;entryX=0;entryY=0;entryDx=0;entryDy=0;movable=1;resizable=1;rotatable=1;deletable=1;editable=1;locked=0;connectable=1;" parent="Tr1CRuv71H9EIvpvQ8Qs-304" source="Tr1CRuv71H9EIvpvQ8Qs-166" target="Tr1CRuv71H9EIvpvQ8Qs-167" edge="1">
          <mxGeometry relative="1" as="geometry" />
        </mxCell>
        <mxCell id="Tr1CRuv71H9EIvpvQ8Qs-180" style="edgeStyle=orthogonalEdgeStyle;rounded=0;orthogonalLoop=1;jettySize=auto;html=1;exitX=0;exitY=1;exitDx=0;exitDy=0;entryX=1;entryY=1;entryDx=0;entryDy=0;movable=1;resizable=1;rotatable=1;deletable=1;editable=1;locked=0;connectable=1;" parent="Tr1CRuv71H9EIvpvQ8Qs-304" source="Tr1CRuv71H9EIvpvQ8Qs-168" target="Tr1CRuv71H9EIvpvQ8Qs-167" edge="1">
          <mxGeometry relative="1" as="geometry" />
        </mxCell>
        <mxCell id="Tr1CRuv71H9EIvpvQ8Qs-168" value="5" style="ellipse;whiteSpace=wrap;html=1;movable=1;resizable=1;rotatable=1;deletable=1;editable=1;locked=0;connectable=1;" parent="Tr1CRuv71H9EIvpvQ8Qs-304" vertex="1">
          <mxGeometry x="840" y="120" width="80" height="80" as="geometry" />
        </mxCell>
        <object label="&lt;div align=&quot;left&quot;&gt;Automato Estoque-n &lt;br&gt;&lt;/div&gt;" n="" placeholders="1" id="Tr1CRuv71H9EIvpvQ8Qs-189">
          <mxCell style="whiteSpace=wrap;html=1;align=left;movable=1;resizable=1;rotatable=1;deletable=1;editable=1;locked=0;connectable=1;" parent="Tr1CRuv71H9EIvpvQ8Qs-304" vertex="1">
            <mxGeometry width="520" height="40" as="geometry" />
          </mxCell>
        </object>
        <mxCell id="Tr1CRuv71H9EIvpvQ8Qs-192" style="edgeStyle=orthogonalEdgeStyle;rounded=0;orthogonalLoop=1;jettySize=auto;html=1;exitX=0.402;exitY=1.003;exitDx=0;exitDy=0;entryX=0.604;entryY=0.998;entryDx=0;entryDy=0;exitPerimeter=0;entryPerimeter=0;movable=1;resizable=1;rotatable=1;deletable=1;editable=1;locked=0;connectable=1;" parent="Tr1CRuv71H9EIvpvQ8Qs-304" source="Tr1CRuv71H9EIvpvQ8Qs-163" target="Tr1CRuv71H9EIvpvQ8Qs-163" edge="1">
          <mxGeometry relative="1" as="geometry">
            <Array as="points">
              <mxPoint x="72" y="230" />
              <mxPoint x="88" y="230" />
            </Array>
          </mxGeometry>
        </mxCell>
        <mxCell id="Tr1CRuv71H9EIvpvQ8Qs-197" value="&lt;div&gt;(checar_estoque)&lt;br&gt;&quot;Estoque: 0&quot;&lt;/div&gt;&lt;div&gt;[estoque_0]&lt;br&gt;&lt;/div&gt;&lt;div&gt;&lt;br&gt;&lt;/div&gt;" style="edgeLabel;html=1;align=center;verticalAlign=middle;resizable=1;points=[];movable=1;rotatable=1;deletable=1;editable=1;locked=0;connectable=1;" parent="Tr1CRuv71H9EIvpvQ8Qs-192" vertex="1" connectable="0">
          <mxGeometry x="0.1258" relative="1" as="geometry">
            <mxPoint x="-5" y="30" as="offset" />
          </mxGeometry>
        </mxCell>
        <mxCell id="Tr1CRuv71H9EIvpvQ8Qs-198" style="edgeStyle=orthogonalEdgeStyle;rounded=0;orthogonalLoop=1;jettySize=auto;html=1;exitX=0.402;exitY=1.003;exitDx=0;exitDy=0;entryX=0.604;entryY=0.998;entryDx=0;entryDy=0;exitPerimeter=0;entryPerimeter=0;movable=1;resizable=1;rotatable=1;deletable=1;editable=1;locked=0;connectable=1;" parent="Tr1CRuv71H9EIvpvQ8Qs-304" edge="1">
          <mxGeometry relative="1" as="geometry">
            <mxPoint x="232" y="200" as="sourcePoint" />
            <mxPoint x="248" y="200" as="targetPoint" />
            <Array as="points">
              <mxPoint x="232" y="230" />
              <mxPoint x="248" y="230" />
            </Array>
          </mxGeometry>
        </mxCell>
        <mxCell id="Tr1CRuv71H9EIvpvQ8Qs-199" value="&lt;div&gt;(checar_estoque)&lt;br&gt;&quot;Estoque: 1&quot;&lt;/div&gt;&lt;div&gt;[estoque_1]&lt;br&gt;&lt;/div&gt;&lt;div&gt;&lt;br&gt;&lt;/div&gt;" style="edgeLabel;html=1;align=center;verticalAlign=middle;resizable=1;points=[];movable=1;rotatable=1;deletable=1;editable=1;locked=0;connectable=1;" parent="Tr1CRuv71H9EIvpvQ8Qs-198" vertex="1" connectable="0">
          <mxGeometry x="0.1258" relative="1" as="geometry">
            <mxPoint x="-5" y="30" as="offset" />
          </mxGeometry>
        </mxCell>
        <mxCell id="Tr1CRuv71H9EIvpvQ8Qs-200" style="edgeStyle=orthogonalEdgeStyle;rounded=0;orthogonalLoop=1;jettySize=auto;html=1;exitX=0.402;exitY=1.003;exitDx=0;exitDy=0;entryX=0.604;entryY=0.998;entryDx=0;entryDy=0;exitPerimeter=0;entryPerimeter=0;movable=1;resizable=1;rotatable=1;deletable=1;editable=1;locked=0;connectable=1;" parent="Tr1CRuv71H9EIvpvQ8Qs-304" edge="1">
          <mxGeometry relative="1" as="geometry">
            <mxPoint x="391.98" y="200" as="sourcePoint" />
            <mxPoint x="407.98" y="200" as="targetPoint" />
            <Array as="points">
              <mxPoint x="391.98" y="230" />
              <mxPoint x="407.98" y="230" />
            </Array>
          </mxGeometry>
        </mxCell>
        <mxCell id="Tr1CRuv71H9EIvpvQ8Qs-201" value="&lt;div&gt;(checar_estoque)&lt;br&gt;&quot;Estoque: 2&quot;&lt;/div&gt;&lt;div&gt;[estoque_2]&lt;br&gt;&lt;/div&gt;&lt;div&gt;&lt;br&gt;&lt;/div&gt;" style="edgeLabel;html=1;align=center;verticalAlign=middle;resizable=1;points=[];movable=1;rotatable=1;deletable=1;editable=1;locked=0;connectable=1;" parent="Tr1CRuv71H9EIvpvQ8Qs-200" vertex="1" connectable="0">
          <mxGeometry x="0.1258" relative="1" as="geometry">
            <mxPoint x="-5" y="30" as="offset" />
          </mxGeometry>
        </mxCell>
        <mxCell id="Tr1CRuv71H9EIvpvQ8Qs-202" style="edgeStyle=orthogonalEdgeStyle;rounded=0;orthogonalLoop=1;jettySize=auto;html=1;exitX=0.402;exitY=1.003;exitDx=0;exitDy=0;entryX=0.604;entryY=0.998;entryDx=0;entryDy=0;exitPerimeter=0;entryPerimeter=0;movable=1;resizable=1;rotatable=1;deletable=1;editable=1;locked=0;connectable=1;" parent="Tr1CRuv71H9EIvpvQ8Qs-304" edge="1">
          <mxGeometry relative="1" as="geometry">
            <mxPoint x="551.99" y="200" as="sourcePoint" />
            <mxPoint x="567.99" y="200" as="targetPoint" />
            <Array as="points">
              <mxPoint x="551.99" y="230" />
              <mxPoint x="567.99" y="230" />
            </Array>
          </mxGeometry>
        </mxCell>
        <mxCell id="Tr1CRuv71H9EIvpvQ8Qs-203" value="&lt;div&gt;(checar_estoque)&lt;br&gt;&quot;Estoque: 3&quot;&lt;/div&gt;&lt;div&gt;[estoque_3]&lt;br&gt;&lt;/div&gt;&lt;div&gt;&lt;br&gt;&lt;/div&gt;" style="edgeLabel;html=1;align=center;verticalAlign=middle;resizable=1;points=[];movable=1;rotatable=1;deletable=1;editable=1;locked=0;connectable=1;" parent="Tr1CRuv71H9EIvpvQ8Qs-202" vertex="1" connectable="0">
          <mxGeometry x="0.1258" relative="1" as="geometry">
            <mxPoint x="-5" y="30" as="offset" />
          </mxGeometry>
        </mxCell>
        <mxCell id="Tr1CRuv71H9EIvpvQ8Qs-204" style="edgeStyle=orthogonalEdgeStyle;rounded=0;orthogonalLoop=1;jettySize=auto;html=1;exitX=0.402;exitY=1.003;exitDx=0;exitDy=0;entryX=0.604;entryY=0.998;entryDx=0;entryDy=0;exitPerimeter=0;entryPerimeter=0;movable=1;resizable=1;rotatable=1;deletable=1;editable=1;locked=0;connectable=1;" parent="Tr1CRuv71H9EIvpvQ8Qs-304" edge="1">
          <mxGeometry relative="1" as="geometry">
            <mxPoint x="712" y="200" as="sourcePoint" />
            <mxPoint x="728" y="200" as="targetPoint" />
            <Array as="points">
              <mxPoint x="712" y="230" />
              <mxPoint x="728" y="230" />
            </Array>
          </mxGeometry>
        </mxCell>
        <mxCell id="Tr1CRuv71H9EIvpvQ8Qs-205" value="&lt;div&gt;(checar_estoque)&lt;br&gt;&quot;Estoque: 4&quot;&lt;/div&gt;&lt;div&gt;[estoque_4]&lt;br&gt;&lt;/div&gt;&lt;div&gt;&lt;br&gt;&lt;/div&gt;" style="edgeLabel;html=1;align=center;verticalAlign=middle;resizable=1;points=[];movable=1;rotatable=1;deletable=1;editable=1;locked=0;connectable=1;" parent="Tr1CRuv71H9EIvpvQ8Qs-204" vertex="1" connectable="0">
          <mxGeometry x="0.1258" relative="1" as="geometry">
            <mxPoint x="-5" y="30" as="offset" />
          </mxGeometry>
        </mxCell>
        <mxCell id="Tr1CRuv71H9EIvpvQ8Qs-206" style="edgeStyle=orthogonalEdgeStyle;rounded=0;orthogonalLoop=1;jettySize=auto;html=1;exitX=0.402;exitY=1.003;exitDx=0;exitDy=0;entryX=0.604;entryY=0.998;entryDx=0;entryDy=0;exitPerimeter=0;entryPerimeter=0;movable=1;resizable=1;rotatable=1;deletable=1;editable=1;locked=0;connectable=1;" parent="Tr1CRuv71H9EIvpvQ8Qs-304" edge="1">
          <mxGeometry relative="1" as="geometry">
            <mxPoint x="872" y="200" as="sourcePoint" />
            <mxPoint x="888" y="200" as="targetPoint" />
            <Array as="points">
              <mxPoint x="872" y="230" />
              <mxPoint x="888" y="230" />
            </Array>
          </mxGeometry>
        </mxCell>
        <mxCell id="Tr1CRuv71H9EIvpvQ8Qs-207" value="&lt;div&gt;(checar_estoque)&lt;br&gt;&quot;Estoque: 5&quot;&lt;/div&gt;&lt;div&gt;[estoque_5]&lt;br&gt;&lt;/div&gt;&lt;div&gt;&lt;br&gt;&lt;/div&gt;" style="edgeLabel;html=1;align=center;verticalAlign=middle;resizable=1;points=[];movable=1;rotatable=1;deletable=1;editable=1;locked=0;connectable=1;" parent="Tr1CRuv71H9EIvpvQ8Qs-206" vertex="1" connectable="0">
          <mxGeometry x="0.1258" relative="1" as="geometry">
            <mxPoint x="-5" y="30" as="offset" />
          </mxGeometry>
        </mxCell>
        <mxCell id="Tr1CRuv71H9EIvpvQ8Qs-213" value="&lt;div&gt;(reestoque)&lt;/div&gt;&lt;div&gt;&quot;Estoque: 1&quot;&lt;br&gt;&lt;/div&gt;" style="text;html=1;strokeColor=none;fillColor=none;align=center;verticalAlign=middle;whiteSpace=wrap;rounded=0;movable=1;resizable=1;rotatable=1;deletable=1;editable=1;locked=0;connectable=1;" parent="Tr1CRuv71H9EIvpvQ8Qs-304" vertex="1">
          <mxGeometry x="120" y="100" width="80" height="30" as="geometry" />
        </mxCell>
        <mxCell id="Tr1CRuv71H9EIvpvQ8Qs-219" value="&lt;div&gt;(reestoque)&lt;/div&gt;&lt;div&gt;&quot;Estoque: 2&quot;&lt;br&gt;&lt;/div&gt;" style="text;html=1;strokeColor=none;fillColor=none;align=center;verticalAlign=middle;whiteSpace=wrap;rounded=0;movable=1;resizable=1;rotatable=1;deletable=1;editable=1;locked=0;connectable=1;" parent="Tr1CRuv71H9EIvpvQ8Qs-304" vertex="1">
          <mxGeometry x="280" y="100" width="80" height="30" as="geometry" />
        </mxCell>
        <mxCell id="Tr1CRuv71H9EIvpvQ8Qs-220" value="&lt;div&gt;(reestoque)&lt;/div&gt;&lt;div&gt;&quot;Estoque: 3&quot;&lt;br&gt;&lt;/div&gt;" style="text;html=1;strokeColor=none;fillColor=none;align=center;verticalAlign=middle;whiteSpace=wrap;rounded=0;movable=1;resizable=1;rotatable=1;deletable=1;editable=1;locked=0;connectable=1;" parent="Tr1CRuv71H9EIvpvQ8Qs-304" vertex="1">
          <mxGeometry x="440" y="100" width="80" height="30" as="geometry" />
        </mxCell>
        <mxCell id="Tr1CRuv71H9EIvpvQ8Qs-221" value="&lt;div&gt;(reestoque)&lt;/div&gt;&lt;div&gt;&quot;Estoque: 4&quot;&lt;br&gt;&lt;/div&gt;" style="text;html=1;strokeColor=none;fillColor=none;align=center;verticalAlign=middle;whiteSpace=wrap;rounded=0;movable=1;resizable=1;rotatable=1;deletable=1;editable=1;locked=0;connectable=1;" parent="Tr1CRuv71H9EIvpvQ8Qs-304" vertex="1">
          <mxGeometry x="600" y="100" width="80" height="30" as="geometry" />
        </mxCell>
        <mxCell id="Tr1CRuv71H9EIvpvQ8Qs-222" value="&lt;div&gt;(reestoque)&lt;/div&gt;&lt;div&gt;&quot;Estoque: 5&quot;&lt;br&gt;&lt;/div&gt;" style="text;html=1;strokeColor=none;fillColor=none;align=center;verticalAlign=middle;whiteSpace=wrap;rounded=0;movable=1;resizable=1;rotatable=1;deletable=1;editable=1;locked=0;connectable=1;" parent="Tr1CRuv71H9EIvpvQ8Qs-304" vertex="1">
          <mxGeometry x="760" y="100" width="80" height="30" as="geometry" />
        </mxCell>
        <mxCell id="Tr1CRuv71H9EIvpvQ8Qs-223" value="&lt;div&gt;(vendido)&lt;/div&gt;&lt;div&gt;&quot;Estoque: 0&quot;&lt;br&gt;&lt;/div&gt;" style="text;html=1;strokeColor=none;fillColor=none;align=center;verticalAlign=middle;whiteSpace=wrap;rounded=0;movable=1;resizable=1;rotatable=1;deletable=1;editable=1;locked=0;connectable=1;" parent="Tr1CRuv71H9EIvpvQ8Qs-304" vertex="1">
          <mxGeometry x="120" y="150" width="80" height="30" as="geometry" />
        </mxCell>
        <mxCell id="Tr1CRuv71H9EIvpvQ8Qs-224" value="&lt;div&gt;(vendido)&lt;/div&gt;&lt;div&gt;&quot;Estoque: 1&quot;&lt;br&gt;&lt;/div&gt;" style="text;html=1;strokeColor=none;fillColor=none;align=center;verticalAlign=middle;whiteSpace=wrap;rounded=0;movable=1;resizable=1;rotatable=1;deletable=1;editable=1;locked=0;connectable=1;" parent="Tr1CRuv71H9EIvpvQ8Qs-304" vertex="1">
          <mxGeometry x="280" y="150" width="80" height="30" as="geometry" />
        </mxCell>
        <mxCell id="Tr1CRuv71H9EIvpvQ8Qs-225" value="&lt;div&gt;(vendido)&lt;/div&gt;&lt;div&gt;&quot;Estoque: 2&quot;&lt;br&gt;&lt;/div&gt;" style="text;html=1;strokeColor=none;fillColor=none;align=center;verticalAlign=middle;whiteSpace=wrap;rounded=0;movable=1;resizable=1;rotatable=1;deletable=1;editable=1;locked=0;connectable=1;" parent="Tr1CRuv71H9EIvpvQ8Qs-304" vertex="1">
          <mxGeometry x="440" y="150" width="80" height="30" as="geometry" />
        </mxCell>
        <mxCell id="Tr1CRuv71H9EIvpvQ8Qs-226" value="&lt;div&gt;(vendido)&lt;/div&gt;&lt;div&gt;&quot;Estoque: 3&quot;&lt;br&gt;&lt;/div&gt;" style="text;html=1;strokeColor=none;fillColor=none;align=center;verticalAlign=middle;whiteSpace=wrap;rounded=0;movable=1;resizable=1;rotatable=1;deletable=1;editable=1;locked=0;connectable=1;" parent="Tr1CRuv71H9EIvpvQ8Qs-304" vertex="1">
          <mxGeometry x="600" y="150" width="80" height="30" as="geometry" />
        </mxCell>
        <mxCell id="Tr1CRuv71H9EIvpvQ8Qs-227" value="&lt;div&gt;(vendido)&lt;/div&gt;&lt;div&gt;&quot;Estoque: 4&quot;&lt;br&gt;&lt;/div&gt;" style="text;html=1;strokeColor=none;fillColor=none;align=center;verticalAlign=middle;whiteSpace=wrap;rounded=0;movable=1;resizable=1;rotatable=1;deletable=1;editable=1;locked=0;connectable=1;" parent="Tr1CRuv71H9EIvpvQ8Qs-304" vertex="1">
          <mxGeometry x="760" y="150" width="80" height="30" as="geometry" />
        </mxCell>
        <mxCell id="Tr1CRuv71H9EIvpvQ8Qs-187" style="edgeStyle=orthogonalEdgeStyle;rounded=0;orthogonalLoop=1;jettySize=auto;html=1;exitX=0.5;exitY=0;exitDx=0;exitDy=0;entryX=0.5;entryY=0;entryDx=0;entryDy=0;movable=1;resizable=1;rotatable=1;deletable=1;editable=1;locked=0;connectable=1;" parent="Tr1CRuv71H9EIvpvQ8Qs-304" source="Tr1CRuv71H9EIvpvQ8Qs-163" target="Tr1CRuv71H9EIvpvQ8Qs-168" edge="1">
          <mxGeometry relative="1" as="geometry">
            <Array as="points">
              <mxPoint x="80" y="80" />
              <mxPoint x="880" y="80" />
            </Array>
          </mxGeometry>
        </mxCell>
        <mxCell id="Tr1CRuv71H9EIvpvQ8Qs-208" value="(reestoque_completo)&lt;br&gt;&lt;div&gt;&quot;Estoque: 5&quot;&lt;/div&gt;" style="edgeLabel;html=1;align=center;verticalAlign=middle;resizable=1;points=[];movable=1;rotatable=1;deletable=1;editable=1;locked=0;connectable=1;" parent="Tr1CRuv71H9EIvpvQ8Qs-187" vertex="1" connectable="0">
          <mxGeometry x="-0.1537" y="-2" relative="1" as="geometry">
            <mxPoint x="49" y="-22" as="offset" />
          </mxGeometry>
        </mxCell>
        <mxCell id="Tr1CRuv71H9EIvpvQ8Qs-179" style="edgeStyle=orthogonalEdgeStyle;rounded=0;orthogonalLoop=1;jettySize=auto;html=1;exitX=1;exitY=0;exitDx=0;exitDy=0;entryX=0;entryY=0;entryDx=0;entryDy=0;movable=1;resizable=1;rotatable=1;deletable=1;editable=1;locked=0;connectable=1;" parent="Tr1CRuv71H9EIvpvQ8Qs-304" source="Tr1CRuv71H9EIvpvQ8Qs-167" target="Tr1CRuv71H9EIvpvQ8Qs-168" edge="1">
          <mxGeometry relative="1" as="geometry" />
        </mxCell>
        <mxCell id="m98e9lYxZSwCTbRmU9cm-44" style="edgeStyle=orthogonalEdgeStyle;rounded=0;orthogonalLoop=1;jettySize=auto;html=1;exitX=1;exitY=1;exitDx=0;exitDy=0;entryX=0;entryY=0.5;entryDx=0;entryDy=0;" edge="1" parent="1" source="Tr1CRuv71H9EIvpvQ8Qs-318" target="m98e9lYxZSwCTbRmU9cm-34">
          <mxGeometry relative="1" as="geometry">
            <Array as="points">
              <mxPoint x="1038" y="630" />
            </Array>
          </mxGeometry>
        </mxCell>
        <mxCell id="m98e9lYxZSwCTbRmU9cm-45" style="edgeStyle=orthogonalEdgeStyle;rounded=0;orthogonalLoop=1;jettySize=auto;html=1;exitX=1;exitY=0.5;exitDx=0;exitDy=0;entryX=0;entryY=0.5;entryDx=0;entryDy=0;" edge="1" parent="1" source="Tr1CRuv71H9EIvpvQ8Qs-318" target="m98e9lYxZSwCTbRmU9cm-32">
          <mxGeometry relative="1" as="geometry" />
        </mxCell>
        <mxCell id="Tr1CRuv71H9EIvpvQ8Qs-318" value="selecionar" style="ellipse;whiteSpace=wrap;html=1;" parent="1" vertex="1">
          <mxGeometry x="970" y="480" width="80" height="80" as="geometry" />
        </mxCell>
        <mxCell id="m98e9lYxZSwCTbRmU9cm-93" style="edgeStyle=orthogonalEdgeStyle;rounded=0;orthogonalLoop=1;jettySize=auto;html=1;exitX=0.5;exitY=0;exitDx=0;exitDy=0;entryX=1;entryY=0;entryDx=0;entryDy=0;" edge="1" parent="1" source="m98e9lYxZSwCTbRmU9cm-32" target="m98e9lYxZSwCTbRmU9cm-46">
          <mxGeometry relative="1" as="geometry">
            <Array as="points">
              <mxPoint x="1180" y="470" />
              <mxPoint x="878" y="470" />
            </Array>
          </mxGeometry>
        </mxCell>
        <mxCell id="m98e9lYxZSwCTbRmU9cm-32" value="vendeu 1" style="ellipse;whiteSpace=wrap;html=1;" vertex="1" parent="1">
          <mxGeometry x="1140" y="480" width="80" height="80" as="geometry" />
        </mxCell>
        <mxCell id="m98e9lYxZSwCTbRmU9cm-34" value="&lt;div&gt;vendeu 2&lt;/div&gt;" style="ellipse;whiteSpace=wrap;html=1;" vertex="1" parent="1">
          <mxGeometry x="1140" y="590" width="80" height="80" as="geometry" />
        </mxCell>
        <mxCell id="m98e9lYxZSwCTbRmU9cm-52" style="edgeStyle=orthogonalEdgeStyle;rounded=0;orthogonalLoop=1;jettySize=auto;html=1;exitX=1;exitY=0;exitDx=0;exitDy=0;entryX=0;entryY=0;entryDx=0;entryDy=0;" edge="1" parent="1" source="m98e9lYxZSwCTbRmU9cm-39" target="m98e9lYxZSwCTbRmU9cm-40">
          <mxGeometry relative="1" as="geometry" />
        </mxCell>
        <mxCell id="m98e9lYxZSwCTbRmU9cm-89" style="edgeStyle=orthogonalEdgeStyle;rounded=0;orthogonalLoop=1;jettySize=auto;html=1;exitX=0;exitY=1;exitDx=0;exitDy=0;entryX=1;entryY=1;entryDx=0;entryDy=0;" edge="1" parent="1" source="m98e9lYxZSwCTbRmU9cm-39" target="m98e9lYxZSwCTbRmU9cm-88">
          <mxGeometry relative="1" as="geometry" />
        </mxCell>
        <mxCell id="m98e9lYxZSwCTbRmU9cm-39" value="0" style="ellipse;whiteSpace=wrap;html=1;" vertex="1" parent="1">
          <mxGeometry x="490" y="465" width="80" height="80" as="geometry" />
        </mxCell>
        <mxCell id="m98e9lYxZSwCTbRmU9cm-53" style="edgeStyle=orthogonalEdgeStyle;rounded=0;orthogonalLoop=1;jettySize=auto;html=1;exitX=0;exitY=1;exitDx=0;exitDy=0;entryX=1;entryY=1;entryDx=0;entryDy=0;" edge="1" parent="1" source="m98e9lYxZSwCTbRmU9cm-40" target="m98e9lYxZSwCTbRmU9cm-39">
          <mxGeometry relative="1" as="geometry" />
        </mxCell>
        <mxCell id="m98e9lYxZSwCTbRmU9cm-40" value="1" style="ellipse;whiteSpace=wrap;html=1;" vertex="1" parent="1">
          <mxGeometry x="650" y="465" width="80" height="80" as="geometry" />
        </mxCell>
        <mxCell id="m98e9lYxZSwCTbRmU9cm-47" style="edgeStyle=orthogonalEdgeStyle;rounded=0;orthogonalLoop=1;jettySize=auto;html=1;exitX=1;exitY=0.5;exitDx=0;exitDy=0;entryX=0;entryY=0.5;entryDx=0;entryDy=0;" edge="1" parent="1" source="m98e9lYxZSwCTbRmU9cm-46" target="Tr1CRuv71H9EIvpvQ8Qs-318">
          <mxGeometry relative="1" as="geometry" />
        </mxCell>
        <mxCell id="m98e9lYxZSwCTbRmU9cm-50" style="edgeStyle=orthogonalEdgeStyle;rounded=0;orthogonalLoop=1;jettySize=auto;html=1;exitX=0.5;exitY=0;exitDx=0;exitDy=0;entryX=0.5;entryY=1;entryDx=0;entryDy=0;" edge="1" parent="1" source="m98e9lYxZSwCTbRmU9cm-46" target="m98e9lYxZSwCTbRmU9cm-49">
          <mxGeometry relative="1" as="geometry" />
        </mxCell>
        <mxCell id="m98e9lYxZSwCTbRmU9cm-46" value="&lt;div&gt;vender&lt;/div&gt;&lt;div&gt;ou&lt;/div&gt;&lt;div&gt;estocar&lt;/div&gt;" style="ellipse;whiteSpace=wrap;html=1;" vertex="1" parent="1">
          <mxGeometry x="810" y="480" width="80" height="80" as="geometry" />
        </mxCell>
        <mxCell id="m98e9lYxZSwCTbRmU9cm-48" value="&lt;div&gt;vender&lt;/div&gt;" style="text;html=1;align=center;verticalAlign=middle;resizable=0;points=[];autosize=1;strokeColor=none;fillColor=none;" vertex="1" parent="1">
          <mxGeometry x="890" y="500" width="60" height="30" as="geometry" />
        </mxCell>
        <mxCell id="m98e9lYxZSwCTbRmU9cm-60" style="edgeStyle=orthogonalEdgeStyle;rounded=0;orthogonalLoop=1;jettySize=auto;html=1;exitX=0;exitY=0;exitDx=0;exitDy=0;entryX=0.5;entryY=1;entryDx=0;entryDy=0;" edge="1" parent="1" source="m98e9lYxZSwCTbRmU9cm-49" target="m98e9lYxZSwCTbRmU9cm-59">
          <mxGeometry relative="1" as="geometry" />
        </mxCell>
        <mxCell id="m98e9lYxZSwCTbRmU9cm-61" style="edgeStyle=orthogonalEdgeStyle;rounded=0;orthogonalLoop=1;jettySize=auto;html=1;exitX=1;exitY=0;exitDx=0;exitDy=0;entryX=0.5;entryY=1;entryDx=0;entryDy=0;" edge="1" parent="1" source="m98e9lYxZSwCTbRmU9cm-49" target="m98e9lYxZSwCTbRmU9cm-58">
          <mxGeometry relative="1" as="geometry">
            <Array as="points">
              <mxPoint x="960" y="312" />
            </Array>
          </mxGeometry>
        </mxCell>
        <mxCell id="m98e9lYxZSwCTbRmU9cm-49" value="selecionar" style="ellipse;whiteSpace=wrap;html=1;" vertex="1" parent="1">
          <mxGeometry x="810" y="300" width="80" height="80" as="geometry" />
        </mxCell>
        <mxCell id="m98e9lYxZSwCTbRmU9cm-51" value="&lt;div&gt;estocar&lt;/div&gt;" style="text;html=1;align=center;verticalAlign=middle;resizable=0;points=[];autosize=1;strokeColor=none;fillColor=none;" vertex="1" parent="1">
          <mxGeometry x="850" y="420" width="60" height="30" as="geometry" />
        </mxCell>
        <mxCell id="m98e9lYxZSwCTbRmU9cm-54" value="vendeu_1" style="text;html=1;align=center;verticalAlign=middle;resizable=0;points=[];autosize=1;strokeColor=none;fillColor=none;" vertex="1" parent="1">
          <mxGeometry x="570" y="505" width="80" height="30" as="geometry" />
        </mxCell>
        <mxCell id="m98e9lYxZSwCTbRmU9cm-55" value="estocou_1" style="text;html=1;align=center;verticalAlign=middle;resizable=0;points=[];autosize=1;strokeColor=none;fillColor=none;" vertex="1" parent="1">
          <mxGeometry x="560" y="455" width="80" height="30" as="geometry" />
        </mxCell>
        <mxCell id="m98e9lYxZSwCTbRmU9cm-56" value="vendeu_1" style="text;html=1;align=center;verticalAlign=middle;resizable=0;points=[];autosize=1;strokeColor=none;fillColor=none;" vertex="1" parent="1">
          <mxGeometry x="1050" y="490" width="80" height="30" as="geometry" />
        </mxCell>
        <mxCell id="m98e9lYxZSwCTbRmU9cm-57" value="&lt;div&gt;vendeu_2&lt;/div&gt;" style="text;html=1;align=center;verticalAlign=middle;resizable=0;points=[];autosize=1;strokeColor=none;fillColor=none;" vertex="1" parent="1">
          <mxGeometry x="1045" y="600" width="80" height="30" as="geometry" />
        </mxCell>
        <mxCell id="m98e9lYxZSwCTbRmU9cm-65" style="edgeStyle=orthogonalEdgeStyle;rounded=0;orthogonalLoop=1;jettySize=auto;html=1;exitX=1;exitY=0.5;exitDx=0;exitDy=0;entryX=1;entryY=0;entryDx=0;entryDy=0;" edge="1" parent="1" source="m98e9lYxZSwCTbRmU9cm-58" target="m98e9lYxZSwCTbRmU9cm-46">
          <mxGeometry relative="1" as="geometry">
            <Array as="points">
              <mxPoint x="1030" y="190" />
              <mxPoint x="1030" y="250" />
              <mxPoint x="970" y="250" />
              <mxPoint x="970" y="460" />
              <mxPoint x="878" y="460" />
            </Array>
          </mxGeometry>
        </mxCell>
        <mxCell id="m98e9lYxZSwCTbRmU9cm-58" value="&lt;div&gt;estocou 1&lt;/div&gt;" style="ellipse;whiteSpace=wrap;html=1;" vertex="1" parent="1">
          <mxGeometry x="920" y="150" width="80" height="80" as="geometry" />
        </mxCell>
        <mxCell id="m98e9lYxZSwCTbRmU9cm-66" style="edgeStyle=orthogonalEdgeStyle;rounded=0;orthogonalLoop=1;jettySize=auto;html=1;exitX=0;exitY=0.5;exitDx=0;exitDy=0;entryX=0;entryY=0;entryDx=0;entryDy=0;" edge="1" parent="1" source="m98e9lYxZSwCTbRmU9cm-59" target="m98e9lYxZSwCTbRmU9cm-46">
          <mxGeometry relative="1" as="geometry">
            <Array as="points">
              <mxPoint x="690" y="180" />
              <mxPoint x="690" y="250" />
              <mxPoint x="750" y="250" />
              <mxPoint x="750" y="460" />
              <mxPoint x="822" y="460" />
            </Array>
          </mxGeometry>
        </mxCell>
        <mxCell id="m98e9lYxZSwCTbRmU9cm-59" value="estocou_2" style="ellipse;whiteSpace=wrap;html=1;" vertex="1" parent="1">
          <mxGeometry x="720" y="140" width="80" height="80" as="geometry" />
        </mxCell>
        <mxCell id="m98e9lYxZSwCTbRmU9cm-62" value="estocou_1" style="text;html=1;align=center;verticalAlign=middle;resizable=0;points=[];autosize=1;strokeColor=none;fillColor=none;" vertex="1" parent="1">
          <mxGeometry x="880" y="280" width="80" height="30" as="geometry" />
        </mxCell>
        <mxCell id="m98e9lYxZSwCTbRmU9cm-63" value="estocou_2" style="text;html=1;align=center;verticalAlign=middle;resizable=0;points=[];autosize=1;strokeColor=none;fillColor=none;" vertex="1" parent="1">
          <mxGeometry x="750" y="290" width="80" height="30" as="geometry" />
        </mxCell>
        <mxCell id="m98e9lYxZSwCTbRmU9cm-64" value="" style="edgeStyle=none;orthogonalLoop=1;jettySize=auto;html=1;rounded=0;entryX=0.5;entryY=1;entryDx=0;entryDy=0;" edge="1" parent="1" target="m98e9lYxZSwCTbRmU9cm-46">
          <mxGeometry width="100" relative="1" as="geometry">
            <mxPoint x="850" y="600" as="sourcePoint" />
            <mxPoint x="870" y="640" as="targetPoint" />
            <Array as="points" />
          </mxGeometry>
        </mxCell>
        <mxCell id="m98e9lYxZSwCTbRmU9cm-67" style="edgeStyle=orthogonalEdgeStyle;rounded=0;orthogonalLoop=1;jettySize=auto;html=1;exitX=1;exitY=0;exitDx=0;exitDy=0;entryX=0;entryY=0;entryDx=0;entryDy=0;" edge="1" source="m98e9lYxZSwCTbRmU9cm-68" target="m98e9lYxZSwCTbRmU9cm-70" parent="1">
          <mxGeometry relative="1" as="geometry" />
        </mxCell>
        <mxCell id="m98e9lYxZSwCTbRmU9cm-68" value="0" style="ellipse;whiteSpace=wrap;html=1;" vertex="1" parent="1">
          <mxGeometry x="490" y="590" width="80" height="80" as="geometry" />
        </mxCell>
        <mxCell id="m98e9lYxZSwCTbRmU9cm-69" style="edgeStyle=orthogonalEdgeStyle;rounded=0;orthogonalLoop=1;jettySize=auto;html=1;exitX=0;exitY=1;exitDx=0;exitDy=0;entryX=1;entryY=1;entryDx=0;entryDy=0;" edge="1" source="m98e9lYxZSwCTbRmU9cm-70" target="m98e9lYxZSwCTbRmU9cm-68" parent="1">
          <mxGeometry relative="1" as="geometry" />
        </mxCell>
        <mxCell id="m98e9lYxZSwCTbRmU9cm-70" value="1" style="ellipse;whiteSpace=wrap;html=1;" vertex="1" parent="1">
          <mxGeometry x="650" y="590" width="80" height="80" as="geometry" />
        </mxCell>
        <mxCell id="m98e9lYxZSwCTbRmU9cm-71" value="vendeu_2" style="text;html=1;align=center;verticalAlign=middle;resizable=0;points=[];autosize=1;strokeColor=none;fillColor=none;" vertex="1" parent="1">
          <mxGeometry x="570" y="630" width="80" height="30" as="geometry" />
        </mxCell>
        <mxCell id="m98e9lYxZSwCTbRmU9cm-72" value="estocou_2" style="text;html=1;align=center;verticalAlign=middle;resizable=0;points=[];autosize=1;strokeColor=none;fillColor=none;" vertex="1" parent="1">
          <mxGeometry x="560" y="580" width="80" height="30" as="geometry" />
        </mxCell>
        <mxCell id="m98e9lYxZSwCTbRmU9cm-75" value="&lt;div&gt;vender&lt;/div&gt;&lt;div&gt;ou&lt;/div&gt;&lt;div&gt;estocar&lt;/div&gt;&lt;div&gt;1&lt;br&gt;&lt;/div&gt;" style="ellipse;whiteSpace=wrap;html=1;" vertex="1" parent="1">
          <mxGeometry x="810" y="910" width="80" height="80" as="geometry" />
        </mxCell>
        <mxCell id="m98e9lYxZSwCTbRmU9cm-78" value="" style="edgeStyle=none;orthogonalLoop=1;jettySize=auto;html=1;rounded=0;entryX=0.5;entryY=1;entryDx=0;entryDy=0;" edge="1" parent="1" target="m98e9lYxZSwCTbRmU9cm-75">
          <mxGeometry width="100" relative="1" as="geometry">
            <mxPoint x="850" y="1050" as="sourcePoint" />
            <mxPoint x="890" y="1050" as="targetPoint" />
            <Array as="points" />
          </mxGeometry>
        </mxCell>
        <mxCell id="m98e9lYxZSwCTbRmU9cm-79" value="&lt;div&gt;selecionar&lt;/div&gt;&lt;div&gt;1&lt;br&gt;&lt;/div&gt;" style="ellipse;whiteSpace=wrap;html=1;" vertex="1" parent="1">
          <mxGeometry x="970" y="910" width="80" height="80" as="geometry" />
        </mxCell>
        <mxCell id="m98e9lYxZSwCTbRmU9cm-80" style="edgeStyle=orthogonalEdgeStyle;rounded=0;orthogonalLoop=1;jettySize=auto;html=1;exitX=1;exitY=0.5;exitDx=0;exitDy=0;entryX=0;entryY=0.5;entryDx=0;entryDy=0;" edge="1" parent="1">
          <mxGeometry relative="1" as="geometry">
            <mxPoint x="890" y="950" as="sourcePoint" />
            <mxPoint x="970" y="950" as="targetPoint" />
          </mxGeometry>
        </mxCell>
        <mxCell id="m98e9lYxZSwCTbRmU9cm-81" value="&lt;div&gt;vender&lt;/div&gt;" style="text;html=1;align=center;verticalAlign=middle;resizable=0;points=[];autosize=1;strokeColor=none;fillColor=none;" vertex="1" parent="1">
          <mxGeometry x="890" y="930" width="60" height="30" as="geometry" />
        </mxCell>
        <mxCell id="m98e9lYxZSwCTbRmU9cm-96" style="edgeStyle=orthogonalEdgeStyle;rounded=0;orthogonalLoop=1;jettySize=auto;html=1;exitX=1;exitY=0.5;exitDx=0;exitDy=0;" edge="1" parent="1" source="m98e9lYxZSwCTbRmU9cm-83">
          <mxGeometry relative="1" as="geometry">
            <mxPoint x="1320" y="950.090909090909" as="targetPoint" />
          </mxGeometry>
        </mxCell>
        <mxCell id="m98e9lYxZSwCTbRmU9cm-83" value="&lt;div&gt;vendeu 1&lt;/div&gt;&lt;div&gt;0&lt;br&gt;&lt;/div&gt;" style="ellipse;whiteSpace=wrap;html=1;" vertex="1" parent="1">
          <mxGeometry x="1140" y="910" width="80" height="80" as="geometry" />
        </mxCell>
        <mxCell id="m98e9lYxZSwCTbRmU9cm-84" style="edgeStyle=orthogonalEdgeStyle;rounded=0;orthogonalLoop=1;jettySize=auto;html=1;exitX=1;exitY=0.5;exitDx=0;exitDy=0;entryX=0;entryY=0.5;entryDx=0;entryDy=0;" edge="1" parent="1">
          <mxGeometry relative="1" as="geometry">
            <mxPoint x="1050" y="950" as="sourcePoint" />
            <mxPoint x="1140" y="950" as="targetPoint" />
          </mxGeometry>
        </mxCell>
        <mxCell id="m98e9lYxZSwCTbRmU9cm-85" value="vendeu_1" style="text;html=1;align=center;verticalAlign=middle;resizable=0;points=[];autosize=1;strokeColor=none;fillColor=none;" vertex="1" parent="1">
          <mxGeometry x="1050" y="920" width="80" height="30" as="geometry" />
        </mxCell>
        <mxCell id="m98e9lYxZSwCTbRmU9cm-86" value="" style="edgeStyle=none;orthogonalLoop=1;jettySize=auto;html=1;rounded=0;entryX=1;entryY=0.5;entryDx=0;entryDy=0;" edge="1" parent="1" target="m98e9lYxZSwCTbRmU9cm-40">
          <mxGeometry width="100" relative="1" as="geometry">
            <mxPoint x="770" y="505" as="sourcePoint" />
            <mxPoint x="820" y="510" as="targetPoint" />
            <Array as="points" />
          </mxGeometry>
        </mxCell>
        <mxCell id="m98e9lYxZSwCTbRmU9cm-87" value="" style="edgeStyle=none;orthogonalLoop=1;jettySize=auto;html=1;rounded=0;entryX=1;entryY=0.5;entryDx=0;entryDy=0;" edge="1" parent="1" target="m98e9lYxZSwCTbRmU9cm-70">
          <mxGeometry width="100" relative="1" as="geometry">
            <mxPoint x="770" y="630" as="sourcePoint" />
            <mxPoint x="800" y="630" as="targetPoint" />
            <Array as="points" />
          </mxGeometry>
        </mxCell>
        <mxCell id="m98e9lYxZSwCTbRmU9cm-92" style="edgeStyle=orthogonalEdgeStyle;rounded=0;orthogonalLoop=1;jettySize=auto;html=1;exitX=1;exitY=0;exitDx=0;exitDy=0;entryX=0;entryY=0;entryDx=0;entryDy=0;" edge="1" parent="1" source="m98e9lYxZSwCTbRmU9cm-88" target="m98e9lYxZSwCTbRmU9cm-39">
          <mxGeometry relative="1" as="geometry" />
        </mxCell>
        <mxCell id="m98e9lYxZSwCTbRmU9cm-88" value="&lt;div&gt;erro vazio&lt;/div&gt;" style="ellipse;whiteSpace=wrap;html=1;" vertex="1" parent="1">
          <mxGeometry x="345" y="465" width="80" height="80" as="geometry" />
        </mxCell>
        <mxCell id="m98e9lYxZSwCTbRmU9cm-90" value="vendeu 1" style="text;html=1;align=center;verticalAlign=middle;resizable=0;points=[];autosize=1;strokeColor=none;fillColor=none;" vertex="1" parent="1">
          <mxGeometry x="425" y="505" width="70" height="30" as="geometry" />
        </mxCell>
        <mxCell id="m98e9lYxZSwCTbRmU9cm-95" value="voltar" style="text;html=1;align=center;verticalAlign=middle;resizable=0;points=[];autosize=1;strokeColor=none;fillColor=none;" vertex="1" parent="1">
          <mxGeometry x="1000" y="450" width="50" height="30" as="geometry" />
        </mxCell>
        <mxCell id="m98e9lYxZSwCTbRmU9cm-97" value="&lt;div&gt;vender&lt;/div&gt;&lt;div&gt;ou &lt;br&gt;&lt;/div&gt;&lt;div&gt;estocar&lt;/div&gt;&lt;div&gt;0&lt;br&gt;&lt;/div&gt;" style="ellipse;whiteSpace=wrap;html=1;" vertex="1" parent="1">
          <mxGeometry x="1320" y="910" width="80" height="80" as="geometry" />
        </mxCell>
        <mxCell id="m98e9lYxZSwCTbRmU9cm-98" value="voltar" style="text;html=1;align=center;verticalAlign=middle;resizable=0;points=[];autosize=1;strokeColor=none;fillColor=none;" vertex="1" parent="1">
          <mxGeometry x="1240" y="920" width="50" height="30" as="geometry" />
        </mxCell>
      </root>
    </mxGraphModel>
  </diagram>
</mxfile>
